<svg viewBox="0 0 100 100" xmlns="http://www.w3.org/2000/svg" width="400" height="400">
<path stroke="transparent" stroke-width="0" fill="#d8db76" d="M88.5,66.5Q77,83,60.0,83.5Q43,84,29.0,76.0Q15,68,12.5,50.0Q10,32,25.0,18.5Q40,5,58.5,10.5Q77,16,88.5,33.0Q100,50,88.5,66.5Z"></path><g><circle transform="translate(70, 65)" cx="0" cy="0" r="6" fill="rgba(255,255,255,0.4)"></circle><circle transform="translate(30, 65)" cx="0" cy="0" r="6" fill="rgba(255,255,255,0.4)"></circle></g><path transform="translate(-3, -3)" stroke="#000" stroke-width="2" fill="none" d="M88.5,66.5Q77,83,60.0,83.5Q43,84,29.0,76.0Q15,68,12.5,50.0Q10,32,25.0,18.5Q40,5,58.5,10.5Q77,16,88.5,33.0Q100,50,88.5,66.5Z"></path><g><g transform="translate(38, 50)"><circle cx="0" cy="0" r="10" stroke="#000" stroke-width="2" fill="#fff"></circle><circle cx="-0.4451086543498928" cy="-1.4466275045614307" r="3" fill="#000"></circle></g><g transform="translate(58, 50)"><circle cx="0" cy="0" r="10" stroke="#000" stroke-width="2" fill="#fff"></circle><circle cx="-0.4451086543498928" cy="-1.4466275045614307" r="3" fill="#000"></circle></g></g></svg>